<svg width="310" height="55" viewBox="0 0 310 55" fill="none" xmlns="http://www.w3.org/2000/svg">
<path d="M78.5291 37.15V33.25L95.7791 33.28C96.6591 33.28 97.3291 33.08 97.7891 32.68C98.2691 32.26 98.5091 31.59 98.5091 30.67C98.5091 29.75 98.2691 29.09 97.7891 28.69C97.3291 28.27 96.6591 28.06 95.7791 28.06H85.0391C82.8191 28.06 81.0891 27.53 79.8491 26.47C78.6291 25.39 78.0191 23.81 78.0191 21.73C78.0191 19.65 78.6291 18.08 79.8491 17.02C81.0891 15.94 82.8191 15.4 85.0391 15.4H101.899V19.3L85.5491 19.27C84.6891 19.27 84.0191 19.47 83.5391 19.87C83.0591 20.25 82.8191 20.87 82.8191 21.73C82.8191 22.59 83.0591 23.22 83.5391 23.62C84.0191 24 84.6891 24.19 85.5491 24.19H96.2891C98.5091 24.19 100.229 24.74 101.449 25.84C102.689 26.92 103.309 28.53 103.309 30.67C103.309 32.79 102.689 34.4 101.449 35.5C100.229 36.6 98.5091 37.15 96.2891 37.15H78.5291ZM105.869 43.75V21.55H116.969C119.649 21.55 121.739 22.21 123.239 23.53C124.739 24.85 125.489 26.76 125.489 29.26C125.489 31.78 124.739 33.7 123.239 35.02C121.739 36.34 119.649 37 116.969 37H110.219V43.75H105.869ZM116.969 25H110.219V33.55H116.969C118.269 33.55 119.259 33.2 119.939 32.5C120.639 31.78 120.989 30.7 120.989 29.26C120.989 27.84 120.639 26.78 119.939 26.08C119.259 25.36 118.269 25 116.969 25ZM132.303 37C130.683 37 129.443 36.59 128.583 35.77C127.723 34.95 127.293 33.78 127.293 32.26C127.293 30.76 127.723 29.6 128.583 28.78C129.443 27.96 130.683 27.55 132.303 27.55H143.823V26.83C143.823 25.61 143.223 25 142.023 25H129.303V21.55H143.163C144.983 21.55 146.273 21.97 147.033 22.81C147.793 23.63 148.173 24.79 148.173 26.29V37H132.303ZM133.083 33.55H143.823V31H133.083C132.703 31 132.403 31.12 132.183 31.36C131.983 31.58 131.883 31.88 131.883 32.26C131.883 32.64 131.983 32.95 132.183 33.19C132.403 33.43 132.703 33.55 133.083 33.55ZM159.404 37.15C156.724 37.15 154.634 36.49 153.134 35.17C151.634 33.83 150.884 31.87 150.884 29.29C150.884 26.69 151.634 24.73 153.134 23.41C154.634 22.07 156.724 21.4 159.404 21.4H169.454V24.85H159.404C158.104 24.85 157.104 25.21 156.404 25.93C155.724 26.65 155.384 27.77 155.384 29.29C155.384 30.79 155.724 31.9 156.404 32.62C157.104 33.34 158.104 33.7 159.404 33.7H169.754V37.15H159.404ZM179.912 37.15C177.232 37.15 175.142 36.49 173.642 35.17C172.142 33.83 171.392 31.87 171.392 29.29C171.392 26.69 172.142 24.73 173.642 23.41C175.142 22.07 177.232 21.4 179.912 21.4H187.412C189.172 21.4 190.512 21.82 191.432 22.66C192.372 23.48 192.842 24.66 192.842 26.2C192.842 29.34 191.032 30.91 187.412 30.91H176.072C176.492 32.77 177.772 33.7 179.912 33.7H192.062V37.15H179.912ZM179.912 24.85C177.852 24.85 176.582 25.72 176.102 27.46H187.202C187.602 27.46 187.912 27.34 188.132 27.1C188.372 26.86 188.492 26.53 188.492 26.11C188.492 25.27 188.062 24.85 187.202 24.85H179.912ZM206.485 37V15.61L224.545 15.55C226.925 15.55 228.685 16.05 229.825 17.05C230.985 18.03 231.565 19.51 231.565 21.49C231.565 23.47 230.905 24.92 229.585 25.84C230.465 26.32 231.115 26.96 231.535 27.76C231.955 28.54 232.165 29.55 232.165 30.79C232.165 32.81 231.585 34.35 230.425 35.41C229.285 36.45 227.525 36.97 225.145 36.97L206.485 37ZM223.975 19.39H211.285V24.19H223.975C225.795 24.19 226.705 23.37 226.705 21.73C226.705 20.17 225.795 19.39 223.975 19.39ZM224.575 28.03H211.285V33.13H224.575C226.395 33.13 227.305 32.27 227.305 30.55C227.305 28.87 226.395 28.03 224.575 28.03ZM235.009 37V15.55H239.359V37H235.009ZM250.576 37.15C247.896 37.15 245.806 36.49 244.306 35.17C242.806 33.83 242.056 31.87 242.056 29.29C242.056 26.69 242.806 24.73 244.306 23.41C245.806 22.07 247.896 21.4 250.576 21.4H256.126C258.806 21.4 260.896 22.07 262.396 23.41C263.896 24.73 264.646 26.69 264.646 29.29C264.646 31.87 263.896 33.83 262.396 35.17C260.896 36.49 258.806 37.15 256.126 37.15H250.576ZM250.576 33.7H256.126C257.426 33.7 258.416 33.34 259.096 32.62C259.796 31.9 260.146 30.79 260.146 29.29C260.146 27.77 259.796 26.65 259.096 25.93C258.416 25.21 257.426 24.85 256.126 24.85H250.576C249.276 24.85 248.276 25.21 247.576 25.93C246.896 26.65 246.556 27.77 246.556 29.29C246.556 30.79 246.896 31.9 247.576 32.62C248.276 33.34 249.276 33.7 250.576 33.7ZM271.013 43.75V40.3H280.073C281.273 40.3 281.873 39.69 281.873 38.47V37H275.273C272.593 37 270.503 36.34 269.003 35.02C267.503 33.7 266.753 31.79 266.753 29.29C266.753 26.77 267.503 24.85 269.003 23.53C270.503 22.21 272.593 21.55 275.273 21.55H286.223V39.01C286.223 40.43 285.813 41.57 284.993 42.43C284.173 43.31 282.893 43.75 281.153 43.75H271.013ZM275.273 33.55H281.873V25H275.273C273.973 25 272.973 25.36 272.273 26.08C271.593 26.78 271.253 27.85 271.253 29.29C271.253 30.71 271.593 31.78 272.273 32.5C272.973 33.2 273.973 33.55 275.273 33.55Z" fill="url(#paint0_linear_432_126)"/>
<path d="M37.321 16.8548C35.7128 6.95262 31.9197 0 27.5055 0C23.0914 0 19.2982 6.95262 17.6901 16.8548H37.321ZM16.8582 27.5C16.8582 29.9617 16.9913 32.3236 17.2242 34.5968H37.7758C38.0087 32.3236 38.1418 29.9617 38.1418 27.5C38.1418 25.0383 38.0087 22.6764 37.7758 20.4032H17.2242C16.9913 22.6764 16.8582 25.0383 16.8582 27.5ZM52.8705 16.8548C49.6985 9.3256 43.2769 3.50403 35.3468 1.15323C38.053 4.90121 39.9163 10.5454 40.8923 16.8548H52.8705ZM19.6532 1.15323C11.7342 3.50403 5.30147 9.3256 2.14055 16.8548H14.1188C15.0837 10.5454 16.947 4.90121 19.6532 1.15323ZM54.0573 20.4032H41.336C41.5689 22.7319 41.702 25.1159 41.702 27.5C41.702 29.8841 41.5689 32.2681 41.336 34.5968H54.0462C54.6562 32.3236 55 29.9617 55 27.5C55 25.0383 54.6562 22.6764 54.0573 20.4032ZM13.3091 27.5C13.3091 25.1159 13.4422 22.7319 13.6751 20.4032H0.953821C0.35491 22.6764 0 25.0383 0 27.5C0 29.9617 0.35491 32.3236 0.953821 34.5968H13.664C13.4422 32.2681 13.3091 29.8841 13.3091 27.5ZM17.6901 38.1452C19.2982 48.0474 23.0914 55 27.5055 55C31.9197 55 35.7128 48.0474 37.321 38.1452H17.6901ZM35.3579 53.8468C43.2769 51.496 49.7096 45.6744 52.8816 38.1452H40.9034C39.9274 44.4546 38.0641 50.0988 35.3579 53.8468ZM2.14055 38.1452C5.31256 45.6744 11.7342 51.496 19.6642 53.8468C16.9581 50.0988 15.0948 44.4546 14.1188 38.1452H2.14055Z" fill="url(#paint1_linear_432_126)"/>
<defs>
<linearGradient id="paint0_linear_432_126" x1="55" y1="27" x2="310" y2="27" gradientUnits="userSpaceOnUse">
<stop stop-color="white"/>
<stop offset="1" stop-color="#999999"/>
</linearGradient>
<linearGradient id="paint1_linear_432_126" x1="27.5" y1="0" x2="27.5" y2="55" gradientUnits="userSpaceOnUse">
<stop stop-color="#56379F"/>
<stop offset="1" stop-color="#9B0FEC"/>
</linearGradient>
</defs>
</svg>
